<?xml version="1.0" encoding="UTF-8"?>
<svg xmlns="http://www.w3.org/2000/svg" width="76.2mm" height="128.5mm" viewBox="0 0 76.2 128.5">
  <defs>
    <linearGradient id="panel" x1="0" y1="0" x2="0" y2="1">
      <stop offset="0" stop-color="#292b2d"/>
      <stop offset="0.08" stop-color="#1d1f21"/>
      <stop offset="0.58" stop-color="#111315"/>
      <stop offset="1" stop-color="#181a1c"/>
    </linearGradient>
    <linearGradient id="gold-rule" x1="0" y1="0" x2="1" y2="0">
      <stop offset="0" stop-color="#e4ae55" stop-opacity="0"/>
      <stop offset="0.5" stop-color="#e4ae55" stop-opacity="0.82"/>
      <stop offset="1" stop-color="#e4ae55" stop-opacity="0"/>
    </linearGradient>
    <radialGradient id="surface" cx="0.5" cy="0.18" r="0.86">
      <stop offset="0" stop-color="#ffffff" stop-opacity="0.055"/>
      <stop offset="0.46" stop-color="#ffffff" stop-opacity="0.012"/>
      <stop offset="1" stop-color="#000000" stop-opacity="0.34"/>
    </radialGradient>
    <radialGradient id="display-glow" cx="0.5" cy="0.48" r="0.7">
      <stop offset="0" stop-color="#172536" stop-opacity="0.7"/>
      <stop offset="1" stop-color="#020407" stop-opacity="0"/>
    </radialGradient>
    <style>
      .name { fill:#edc27b; font-family:'DejaVu Sans','Arial',sans-serif; font-size:4.35px; font-weight:400; letter-spacing:0.72px; text-anchor:middle; }
      .tag { fill:#e0aa50; font-family:'DejaVu Sans','Arial',sans-serif; font-size:1.38px; font-weight:600; letter-spacing:0.55px; text-anchor:middle; }
      .label { fill:#e7b866; font-family:'DejaVu Sans','Arial',sans-serif; font-size:2.03px; font-weight:400; letter-spacing:0.25px; text-anchor:middle; }
      .small { fill:#dfb56d; font-family:'DejaVu Sans','Arial',sans-serif; font-size:1.5px; font-weight:400; letter-spacing:0.15px; text-anchor:middle; }
      .amber { fill:#e2ad55; }
      .brand { fill:#d9a858; font-family:'DejaVu Sans','Arial',sans-serif; font-size:1.58px; font-weight:400; letter-spacing:0.88px; text-anchor:middle; }
    </style>
  </defs>

  <rect width="76.2" height="128.5" fill="url(#panel)"/>
  <rect width="76.2" height="128.5" fill="url(#surface)"/>
  <path d="M1 2 H75.2 M1 4 H75.2 M1 6 H75.2 M1 8 H75.2 M1 10 H75.2 M1 12 H75.2 M1 14 H75.2 M1 16 H75.2 M1 18 H75.2 M1 20 H75.2 M1 22 H75.2 M1 24 H75.2 M1 26 H75.2 M1 28 H75.2 M1 30 H75.2 M1 32 H75.2 M1 34 H75.2 M1 36 H75.2 M1 38 H75.2 M1 40 H75.2 M1 42 H75.2 M1 44 H75.2 M1 46 H75.2 M1 48 H75.2 M1 50 H75.2 M1 52 H75.2 M1 54 H75.2 M1 56 H75.2 M1 58 H75.2 M1 60 H75.2 M1 62 H75.2 M1 64 H75.2 M1 66 H75.2 M1 68 H75.2 M1 70 H75.2 M1 72 H75.2 M1 74 H75.2 M1 76 H75.2 M1 78 H75.2 M1 80 H75.2 M1 82 H75.2 M1 84 H75.2 M1 86 H75.2 M1 88 H75.2 M1 90 H75.2 M1 92 H75.2 M1 94 H75.2 M1 96 H75.2 M1 98 H75.2 M1 100 H75.2 M1 102 H75.2 M1 104 H75.2 M1 106 H75.2 M1 108 H75.2 M1 110 H75.2 M1 112 H75.2 M1 114 H75.2 M1 116 H75.2 M1 118 H75.2 M1 120 H75.2 M1 122 H75.2 M1 124 H75.2 M1 126 H75.2" stroke="#ffffff" stroke-width="0.05" opacity="0.035"/>
  <rect x="0.5" y="0.5" width="75.2" height="127.5" rx="0.85" fill="none" stroke="#3b3d40" stroke-width="0.32"/>
  <rect x="0.9" y="0.9" width="74.4" height="126.7" rx="0.65" fill="none" stroke="#070809" stroke-width="0.22" opacity="0.82"/>
  <path d="M20 12.5 H56.2" stroke="url(#gold-rule)" stroke-width="0.36"/>

  <path d="M21.746301269531255 4.423095703125V4.8755126953125Q21.529650878906253 4.67373046875 21.284326171875 4.573901367187499Q21.039001464843754 4.474072265625 20.762878417968754 4.474072265625Q20.219128417968754 4.474072265625 19.930261230468755 4.80648193359375Q19.641394042968756 5.1388916015625 19.641394042968756 5.7676025390625Q19.641394042968756 6.394189453125 19.930261230468755 6.7265991210937495Q20.219128417968754 7.059008789062499 20.762878417968754 7.059008789062499Q21.039001464843754 7.059008789062499 21.284326171875 6.959179687499999Q21.529650878906253 6.8593505859374995 21.746301269531255 6.6575683593749995V7.1057373046875Q21.521154785156256 7.2586669921875 21.269458007812503 7.335131835937499Q21.017761230468754 7.4115966796874995 20.737390136718755 7.4115966796874995Q20.017346191406254 7.4115966796874995 19.603161621093754 6.9708618164062495Q19.188977050781254 6.5301269531249995 19.188977050781254 5.7676025390625Q19.188977050781254 5.0029541015625 19.603161621093754 4.56221923828125Q20.017346191406254 4.121484375 20.737390136718755 4.121484375Q21.022009277343756 4.121484375 21.273706054687505 4.196887207031249Q21.525402832031254 4.2722900390625 21.746301269531255 4.423095703125ZM24.41615478515625 4.46982421875Q23.94886962890625 4.46982421875 23.673808593750003 4.8181640625Q23.398747558593755 5.16650390625 23.398747558593755 5.7676025390625Q23.398747558593755 6.3665771484375 23.673808593750003 6.7149169921875Q23.94886962890625 7.0632568359375 24.41615478515625 7.0632568359375Q24.88343994140625 7.0632568359375 25.156376953125005 6.7149169921875Q25.429313964843754 6.3665771484375 25.429313964843754 5.7676025390625Q25.429313964843754 5.16650390625 25.156376953125005 4.8181640625Q24.88343994140625 4.46982421875 24.41615478515625 4.46982421875ZM24.41615478515625 4.121484375Q25.083098144531252 4.121484375 25.48241455078125 4.568591308593749Q25.88173095703125 5.0156982421875 25.88173095703125 5.7676025390625Q25.88173095703125 6.517382812499999 25.48241455078125 6.964489746093749Q25.083098144531252 7.4115966796874995 24.41615478515625 7.4115966796874995Q23.74708740234375 7.4115966796874995 23.346708984375002 6.9655517578124995Q22.946330566406253 6.5195068359374995 22.946330566406253 5.7676025390625Q22.946330566406253 5.0156982421875 23.346708984375002 4.568591308593749Q23.74708740234375 4.121484375 24.41615478515625 4.121484375ZM27.272922363281253 4.1788330078125H27.850656738281256L29.256760253906254 6.83173828125V4.1788330078125H29.673068847656253V7.35H29.095334472656255L27.689230957031253 4.6970947265625V7.35H27.272922363281253ZM33.14792724609376 4.28291015625V4.701342773437499Q32.90366455078126 4.584521484374999 32.68701416015625 4.5271728515625Q32.470363769531254 4.46982421875 32.268581542968754 4.46982421875Q31.918117675781254 4.46982421875 31.728017578125005 4.60576171875Q31.537917480468757 4.74169921875 31.537917480468757 4.992333984375Q31.537917480468757 5.2026123046875 31.664296875000005 5.30987548828125Q31.790676269531254 5.417138671875 32.14326416015626 5.4829833984375L32.402395019531255 5.536083984375Q32.88242431640626 5.6274169921874995 33.11075683593751 5.85787353515625Q33.33908935546876 6.088330078125 33.33908935546876 6.474902343749999Q33.33908935546876 6.9358154296875 33.03004394531251 7.1737060546875Q32.720998535156255 7.4115966796874995 32.12414794921875 7.4115966796874995Q31.899001464843757 7.4115966796874995 31.645180664062508 7.3606201171875Q31.391359863281256 7.3096435546875 31.119484863281254 7.2098144531249995V6.768017578125Q31.380739746093756 6.9145751953125 31.631374511718754 6.988916015625Q31.882009277343755 7.0632568359375 32.12414794921875 7.0632568359375Q32.491604003906254 7.0632568359375 32.69126220703126 6.9188232421875Q32.890920410156255 6.7743896484374995 32.890920410156255 6.506762695312499Q32.890920410156255 6.273120117187499 32.747548828125005 6.141430664062499Q32.604177246093755 6.0097412109374995 32.27707763671876 5.943896484374999L32.01582275390626 5.8929199218749995Q31.535793457031254 5.7973388671874995 31.321267089843754 5.593432617187499Q31.106740722656255 5.3895263671875 31.106740722656255 5.026318359375Q31.106740722656255 4.605761718749999 31.403041992187504 4.3636230468749995Q31.699343261718756 4.121484375 32.21972900390625 4.121484375Q32.44275146484375 4.121484375 32.67427001953125 4.1618408203124995Q32.905788574218754 4.202197265624999 33.14792724609376 4.28291015625ZM34.28848388671875 4.1788330078125H36.97112548828125V4.5399169921875H35.84539306640625V7.35H35.41421630859375V4.5399169921875H34.28848388671875ZM38.10531005859376 4.1788330078125H40.110388183593756V4.5399169921875H38.53436279296876V5.4787353515624995H40.04454345703125V5.8398193359374995H38.53436279296876V6.988916015625H40.14862060546876V7.35H38.10531005859376ZM41.573796386718755 4.1788330078125H42.00284912109375V6.988916015625H43.54701416015625V7.35H41.573796386718755ZM44.717307128906256 4.1788330078125H45.146359863281255V6.988916015625H46.69052490234375V7.35H44.717307128906256ZM48.920705566406255 4.601513671875 48.33872314453126 6.1796630859374995H49.504812011718755ZM48.67856689453126 4.1788330078125H49.164968261718755L50.37353759765625 7.35H49.92749267578125L49.63862548828126 6.5364990234375H48.209157714843755L47.92029052734375 7.35H47.46787353515626ZM51.116901855468754 4.1788330078125H53.799543457031255V4.5399169921875H52.673811035156255V7.35H52.242634277343754V4.5399169921875H51.116901855468754ZM54.93372802734376 4.1788330078125H56.93880615234376V4.5399169921875H55.36278076171876V5.4787353515624995H56.872961425781256V5.8398193359374995H55.36278076171876V6.988916015625H56.97703857421876V7.35H54.93372802734376Z" fill="#edc27b" />
  <path d="M21.23640625 10.190048828125Q21.317939453125 10.190048828125 21.3533154296875 10.159726562500001Q21.38869140625 10.129404296875 21.38869140625 10.06Q21.38869140625 9.99126953125 21.3533154296875 9.96162109375Q21.317939453125 9.93197265625 21.23640625 9.93197265625H21.12724609375V10.190048828125ZM21.12724609375 10.369287109375V10.75H20.867822265625V9.743974609375H21.264033203125Q21.462812500000002 9.743974609375 21.555463867187502 9.81068359375Q21.648115234375002 9.877392578125 21.648115234375002 10.021591796875Q21.648115234375002 10.121318359375 21.5999365234375 10.185332031249999Q21.5517578125 10.249345703125 21.4547265625 10.27966796875Q21.507958984375 10.291796875 21.5500732421875 10.3345849609375Q21.5921875 10.377373046875 21.6353125 10.464296875L21.776142578125 10.75H21.499873046875L21.377236328125 10.500009765625Q21.34017578125 10.424541015625 21.3021044921875 10.396914062499999Q21.264033203125 10.369287109375 21.200693359375002 10.369287109375ZM22.480449218750003 9.743974609375H23.180556640625003V9.94005859375H22.739873046875V10.1273828125H23.154277343750003V10.323466796875H22.739873046875V10.553916015625H23.195380859375003V10.75H22.480449218750003ZM23.973134765625 9.743974609375H24.23255859375V10.553916015625H24.68806640625V10.75H23.973134765625ZM26.012968750000002 10.56671875H25.60732421875L25.543310546875002 10.75H25.282539062500003L25.655166015625003 9.743974609375H25.964453125000002L26.337080078125002 10.75H26.076308593750003ZM25.672011718750003 10.380068359375H25.947607421875002L25.810146484375 9.979814453125ZM26.900556640625002 9.743974609375H27.827744140625V9.94005859375H27.49419921875V10.75H27.234775390625V9.94005859375H26.900556640625002ZM28.511835937500003 9.743974609375H28.771259765625V10.75H28.511835937500003ZM30.03484375 9.913779296875Q29.91625 9.913779296875 29.850888671875 10.001376953125Q29.78552734375 10.088974609375 29.78552734375 10.247998046875Q29.78552734375 10.40634765625 29.850888671875 10.4939453125Q29.91625 10.58154296875 30.03484375 10.58154296875Q30.154111328125 10.58154296875 30.21947265625 10.4939453125Q30.284833984375002 10.40634765625 30.284833984375002 10.247998046875Q30.284833984375002 10.088974609375 30.21947265625 10.001376953125Q30.154111328125 9.913779296875 30.03484375 9.913779296875ZM30.03484375 9.72578125Q30.277421875 9.72578125 30.414882812500004 9.86458984375Q30.552343750000002 10.0033984375 30.552343750000002 10.247998046875Q30.552343750000002 10.491923828125 30.414882812500004 10.630732421874999Q30.277421875 10.769541015625 30.03484375 10.769541015625Q29.792939453125 10.769541015625 29.6551416015625 10.630732421874999Q29.517343750000002 10.491923828125 29.517343750000002 10.247998046875Q29.517343750000002 10.0033984375 29.6551416015625 9.86458984375Q29.792939453125 9.72578125 30.03484375 9.72578125ZM31.298427734375004 9.743974609375H31.588173828125L31.954062500000003 10.433974609375V9.743974609375H32.200009765625005V10.75H31.910263671875004L31.544375000000002 10.06V10.75H31.298427734375004ZM33.613857421875004 10.56671875H33.208212890625006L33.14419921875 10.75H32.883427734375005L33.256054687500004 9.743974609375H33.565341796875L33.93796875 10.75H33.677197265625004ZM33.272900390625004 10.380068359375H33.54849609375L33.41103515625 9.979814453125ZM34.62138671875 9.743974609375H34.880810546875004V10.553916015625H35.336318359375V10.75H34.62138671875ZM37.081171875 9.743974609375H37.781279296875V9.94005859375H37.340595703125004V10.1273828125H37.755V10.323466796875H37.340595703125004V10.553916015625H37.796103515625V10.75H37.081171875ZM38.453916015625005 9.743974609375H38.714687500000004L38.9815234375 10.486533203125L39.247685546875005 9.743974609375H39.50845703125L39.135830078125004 10.75H38.826542968750005ZM40.191875 9.743974609375H40.891982421875V9.94005859375H40.451298828125005V10.1273828125H40.865703125V10.323466796875H40.451298828125005V10.553916015625H40.906806640625V10.75H40.191875ZM41.684560546875005 9.743974609375H41.974306640625L42.3401953125 10.433974609375V9.743974609375H42.586142578125006V10.75H42.296396484375L41.930507812500004 10.06V10.75H41.684560546875005ZM43.269560546875006 9.743974609375H44.196748046875V9.94005859375H43.863203125000005V10.75H43.603779296875004V9.94005859375H43.269560546875006ZM45.911279296875 9.743974609375H46.241455078125L46.470556640625 10.28236328125L46.701005859375 9.743974609375H47.0305078125V10.75H46.785234375V10.0141796875L46.5534375 10.556611328125H46.3890234375L46.1572265625 10.0141796875V10.75H45.911279296875ZM47.834541015625 9.743974609375H48.534648437499996V9.94005859375H48.09396484375V10.1273828125H48.508369140625V10.323466796875H48.09396484375V10.553916015625H48.549472656249996V10.75H47.834541015625ZM49.3272265625 9.743974609375H49.65740234375L49.88650390625 10.28236328125L50.116953125 9.743974609375H50.446455078125V10.75H50.201181640625V10.0141796875L49.969384765625 10.556611328125H49.804970703125L49.573173828125 10.0141796875V10.75H49.3272265625ZM51.7100390625 9.913779296875Q51.5914453125 9.913779296875 51.526083984375 10.001376953125Q51.46072265625 10.088974609375 51.46072265625 10.247998046875Q51.46072265625 10.40634765625 51.526083984375 10.4939453125Q51.5914453125 10.58154296875 51.7100390625 10.58154296875Q51.829306640625 10.58154296875 51.89466796875 10.4939453125Q51.960029296875 10.40634765625 51.960029296875 10.247998046875Q51.960029296875 10.088974609375 51.89466796875 10.001376953125Q51.829306640625 9.913779296875 51.7100390625 9.913779296875ZM51.7100390625 9.72578125Q51.952617187499996 9.72578125 52.090078125 9.86458984375Q52.2275390625 10.0033984375 52.2275390625 10.247998046875Q52.2275390625 10.491923828125 52.090078125 10.630732421874999Q51.952617187499996 10.769541015625 51.7100390625 10.769541015625Q51.468134765624995 10.769541015625 51.3303369140625 10.630732421874999Q51.192539062499996 10.491923828125 51.192539062499996 10.247998046875Q51.192539062499996 10.0033984375 51.3303369140625 9.86458984375Q51.468134765624995 9.72578125 51.7100390625 9.72578125ZM53.34220703125 10.190048828125Q53.423740234374996 10.190048828125 53.459116210937495 10.159726562500001Q53.49449218749999 10.129404296875 53.49449218749999 10.06Q53.49449218749999 9.99126953125 53.459116210937495 9.96162109375Q53.423740234374996 9.93197265625 53.34220703125 9.93197265625H53.233046875V10.190048828125ZM53.233046875 10.369287109375V10.75H52.973623046875V9.743974609375H53.369833984375Q53.568613281249995 9.743974609375 53.661264648437495 9.81068359375Q53.753916015624995 9.877392578125 53.753916015624995 10.021591796875Q53.753916015624995 10.121318359375 53.705737304687496 10.185332031249999Q53.65755859375 10.249345703125 53.560527343749996 10.27966796875Q53.613759765625 10.291796875 53.6558740234375 10.3345849609375Q53.69798828125 10.377373046875 53.741113281249994 10.464296875L53.88194335937499 10.75H53.605673828125L53.483037109375 10.500009765625Q53.4459765625 10.424541015625 53.4079052734375 10.396914062499999Q53.369833984375 10.369287109375 53.306494140625 10.369287109375ZM54.446093749999996 9.743974609375H54.729775390625L54.958876953125 10.102451171875L55.187978515625 9.743974609375H55.472333984375L55.08892578125 10.326162109375V10.75H54.829501953124996V10.326162109375Z" fill="#e0aa50" />

  <!-- display backing: the live NanoVG renderer sits on this glass -->
  <rect x="17.8" y="16.75" width="40.6" height="38.1" rx="2" fill="#030506" stroke="#090a0b" stroke-width="1"/>
  <rect x="18.25" y="17.2" width="39.7" height="37.2" rx="1.55" fill="none" stroke="#d19b40" stroke-width="0.32" opacity="0.8"/>
  <rect x="18.55" y="17.5" width="39.1" height="36.6" rx="1.35" fill="url(#display-glow)"/>

  <!-- restrained arcs around the four relationship controls -->
  <g fill="none" stroke="#e2ad55" stroke-width="0.46" stroke-linecap="round" opacity="0.92">
    <path d="M6.2 33 C3.7 29.3 4.1 23.4 7.2 20.5 C9.8 18.2 13.2 18.2 15.8 20.5 C18.9 23.4 19.3 29.3 16.8 33"/>
    <path d="M6.2 53.2 C3.7 49.5 4.1 43.6 7.2 40.7 C9.8 38.4 13.2 38.4 15.8 40.7 C18.9 43.6 19.3 49.5 16.8 53.2"/>
    <path d="M59.4 33 C56.9 29.3 57.3 23.4 60.4 20.5 C63 18.2 66.4 18.2 69 20.5 C72.1 23.4 72.5 29.3 70 33"/>
    <path d="M59.4 53.2 C56.9 49.5 57.3 43.6 60.4 40.7 C63 38.4 66.4 38.4 69 40.7 C72.1 43.6 72.5 49.5 70 53.2"/>
    <path d="M33.2 60.6 C29.7 62.8 27.3 68.4 27.3 75.6" stroke-width="0.56"/>
    <path d="M43 60.6 C46.5 62.8 48.9 68.4 48.9 75.6" stroke-width="0.56"/>
  </g>
  <g fill="#e2ad55">
    <circle cx="11.5" cy="19.15" r="0.52"/>
    <circle cx="11.5" cy="39.35" r="0.52"/>
    <circle cx="64.7" cy="19.15" r="0.52"/>
    <circle cx="64.7" cy="39.35" r="0.52"/>
    <circle cx="33.2" cy="60.6" r="0.58"/><circle cx="27.3" cy="75.6" r="0.58"/>
    <circle cx="43" cy="60.6" r="0.58"/><circle cx="48.9" cy="75.6" r="0.58"/>
  </g>

  <path d="M6.557285156250001 35.720122070312506H6.8556396484375L7.233291015625 36.727192382812504L7.6129248046875 35.720122070312506H7.9112792968750005V37.2H7.716010742187501V35.9005224609375L7.33439453125 36.9155224609375H7.1331787109375L6.7515625 35.9005224609375V37.2H6.557285156250001ZM8.5587548828125 35.720122070312506H9.4944580078125V35.8886279296875H8.758979492187501V36.326743164062506H9.46373046875V36.4952490234375H8.758979492187501V37.031494140625H9.512299804687501V37.2H8.5587548828125ZM10.0913818359375 35.720122070312506H10.389736328125002L10.7673876953125 36.727192382812504L11.147021484375001 35.720122070312506H11.4453759765625V37.2H11.250107421875V35.9005224609375L10.868491210937501 36.9155224609375H10.667275390625L10.285659179687501 35.9005224609375V37.2H10.0913818359375ZM12.693525390625002 35.855917968750006Q12.475458984375003 35.855917968750006 12.347097167968752 36.018476562500005Q12.218735351562502 36.181035156250005 12.218735351562502 36.4615478515625Q12.218735351562502 36.7410693359375 12.347097167968752 36.9036279296875Q12.475458984375003 37.0661865234375 12.693525390625002 37.0661865234375Q12.911591796875003 37.0661865234375 13.038962402343753 36.9036279296875Q13.166333007812502 36.7410693359375 13.166333007812502 36.4615478515625Q13.166333007812502 36.181035156250005 13.038962402343753 36.018476562500005Q12.911591796875003 35.855917968750006 12.693525390625002 35.855917968750006ZM12.693525390625002 35.693359375Q13.004765625000003 35.693359375 13.191113281250002 35.90200927734375Q13.377460937500002 36.1106591796875 13.377460937500002 36.4615478515625Q13.377460937500002 36.811445312500005 13.191113281250002 37.02009521484375Q13.004765625000003 37.2287451171875 12.693525390625002 37.2287451171875Q12.381293945312501 37.2287451171875 12.194450683593752 37.020590820312506Q12.007607421875003 36.812436523437505 12.007607421875003 36.4615478515625Q12.007607421875003 36.1106591796875 12.194450683593752 35.90200927734375Q12.381293945312501 35.693359375 12.693525390625002 35.693359375ZM14.642460937500003 36.50615234375Q14.706889648437503 36.527958984375005 14.767849121093754 36.599326171875006Q14.828808593750002 36.670693359375 14.890263671875003 36.7955859375L15.093461914062502 37.2H14.878369140625002L14.689047851562503 36.8203662109375Q14.615698242187502 36.6716845703125 14.546809082031253 36.62311523437501Q14.477919921875003 36.574545898437506 14.358974609375002 36.574545898437506H14.140908203125003V37.2H13.940683593750002V35.720122070312506H14.392675781250002Q14.646425781250002 35.720122070312506 14.771318359375002 35.82618164062501Q14.896210937500003 35.932241210937505 14.896210937500003 36.1463427734375Q14.896210937500003 36.286103515625 14.831286621093753 36.378286132812505Q14.766362304687503 36.47046875 14.642460937500003 36.50615234375ZM14.140908203125003 35.884663085937504V36.4100048828125H14.392675781250002Q14.537392578125003 36.4100048828125 14.611237792968753 36.343098144531254Q14.685083007812503 36.27619140625 14.685083007812503 36.1463427734375Q14.685083007812503 36.016494140625 14.611237792968753 35.95057861328125Q14.537392578125003 35.884663085937504 14.392675781250002 35.884663085937504ZM15.397978515625002 35.720122070312506H15.613071289062502L16.023432617187503 36.328725585937505L16.430820312500003 35.720122070312506H16.6459130859375L16.122553710937503 36.4952490234375V37.2H15.921337890625002V36.4952490234375Z" fill="#e7b866" />
  <path d="M6.858894042968751 56.117373046875 6.587302246093751 56.8538427734375H7.131477050781251ZM6.745895996093751 55.9201220703125H6.97288330078125L7.53688232421875 57.4H7.32872802734375L7.19392333984375 57.020366210937496H6.526838378906251L6.392033691406251 57.4H6.18090576171875ZM8.00296630859375 55.9201220703125H8.853425292968751V56.0886279296875H8.203190917968751V56.524760742187496H8.78998779296875V56.6932666015625H8.203190917968751V57.4H8.00296630859375ZM9.42061279296875 55.9201220703125H10.271071777343751V56.0886279296875H9.620837402343751V56.524760742187496H10.20763427734375V56.6932666015625H9.620837402343751V57.4H9.42061279296875ZM10.83825927734375 55.9201220703125H11.038483886718751V57.4H10.83825927734375ZM11.68695068359375 55.9201220703125H11.95656005859375L12.61274169921875 57.158144531249995V55.9201220703125H12.80701904296875V57.4H12.53740966796875L11.88122802734375 56.1619775390625V57.4H11.68695068359375ZM13.45548583984375 55.9201220703125H13.65571044921875V57.4H13.45548583984375ZM14.09899658203125 55.9201220703125H15.35089599609375V56.0886279296875H14.82555419921875V57.4H14.62433837890625V56.0886279296875H14.09899658203125ZM15.59098388671875 55.9201220703125H15.806076660156249L16.21643798828125 56.5287255859375L16.62382568359375 55.9201220703125H16.838918457031248L16.31555908203125 56.6952490234375V57.4H16.114343261718748V56.6952490234375Z" fill="#e7b866" />
  <path d="M61.60947021484375 35.884663085937504V37.035458984375005H61.85132568359376Q62.15760986328125 37.035458984375005 62.2998486328125 36.896689453125006Q62.44208740234375 36.757919921875 62.44208740234375 36.45857421875Q62.44208740234375 36.1612109375 62.2998486328125 36.02293701171875Q62.15760986328125 35.884663085937504 61.85132568359376 35.884663085937504ZM61.409245605468755 35.720122070312506H61.82059814453125Q62.250783691406255 35.720122070312506 62.45199951171875 35.89903564453125Q62.65321533203125 36.07794921875 62.65321533203125 36.45857421875Q62.65321533203125 36.841181640625 62.451008300781254 37.020590820312506Q62.248801269531256 37.2 61.82059814453125 37.2H61.409245605468755ZM63.924162597656256 36.50615234375Q63.988591308593755 36.527958984375005 64.04955078125 36.599326171875006Q64.11051025390626 36.670693359375 64.17196533203125 36.7955859375L64.37516357421876 37.2H64.16007080078126L63.97074951171875 36.8203662109375Q63.89739990234376 36.6716845703125 63.828510742187504 36.62311523437501Q63.75962158203125 36.574545898437506 63.640676269531255 36.574545898437506H63.42260986328125V37.2H63.22238525390625V35.720122070312506H63.67437744140626Q63.928127441406254 35.720122070312506 64.05302001953126 35.82618164062501Q64.17791259765626 35.932241210937505 64.17791259765626 36.1463427734375Q64.17791259765626 36.286103515625 64.11298828125001 36.378286132812505Q64.04806396484375 36.47046875 63.924162597656256 36.50615234375ZM63.42260986328125 35.884663085937504V36.4100048828125H63.67437744140626Q63.81909423828125 36.4100048828125 63.892939453125 36.343098144531254Q63.96678466796875 36.27619140625 63.96678466796875 36.1463427734375Q63.96678466796875 36.016494140625 63.892939453125 35.95057861328125Q63.81909423828125 35.884663085937504 63.67437744140626 35.884663085937504ZM64.88287841796875 35.720122070312506H65.08310302734375V37.2H64.88287841796875ZM65.73156982421875 35.720122070312506H66.58202880859375V35.8886279296875H65.93179443359375V36.3247607421875H66.51859130859376V36.4932666015625H65.93179443359375V37.2H65.73156982421875ZM66.94403564453125 35.720122070312506H68.19593505859375V35.8886279296875H67.67059326171875V37.2H67.46937744140625V35.8886279296875H66.94403564453125Z" fill="#e7b866" />
  <path d="M59.983669433593754 56.0846630859375V57.235458984375H60.22552490234376Q60.53180908203125 57.235458984375 60.674047851562506 57.096689453124995Q60.81628662109375 56.957919921874996 60.81628662109375 56.65857421875Q60.81628662109375 56.3612109375 60.674047851562506 56.22293701171875Q60.53180908203125 56.0846630859375 60.22552490234376 56.0846630859375ZM59.783444824218755 55.9201220703125H60.19479736328125Q60.624982910156255 55.9201220703125 60.826198730468754 56.09903564453125Q61.02741455078125 56.277949218749995 61.02741455078125 56.65857421875Q61.02741455078125 57.041181640625 60.825207519531254 57.220590820312495Q60.62300048828126 57.4 60.19479736328125 57.4H59.783444824218755ZM61.596584472656254 55.9201220703125H62.53228759765626V56.0886279296875H61.79680908203125V56.5267431640625H62.50156005859375V56.6952490234375H61.79680908203125V57.231494140624996H62.550129394531254V57.4H61.596584472656254ZM63.12921142578125 55.9201220703125H63.39882080078125L64.05500244140624 57.158144531249995V55.9201220703125H64.24927978515625V57.4H63.97967041015625L63.32348876953125 56.1619775390625V57.4H63.12921142578125ZM65.78488037109375 55.96869140625V56.1639599609375Q65.67089111328124 56.109443359375 65.56978759765624 56.0826806640625Q65.46868408203125 56.05591796875 65.37451904296874 56.05591796875Q65.21096923828125 56.05591796875 65.122255859375 56.11935546875Q65.03354248046875 56.18279296875 65.03354248046875 56.299755859375Q65.03354248046875 56.3978857421875 65.09251953124999 56.44794189453125Q65.15149658203124 56.497998046875 65.31603759765625 56.5287255859375L65.43696533203125 56.553505859375Q65.66097900390625 56.5961279296875 65.76753417968749 56.70367431640625Q65.87408935546874 56.811220703124995 65.87408935546874 56.99162109375Q65.87408935546874 57.206713867187496 65.7298681640625 57.317729492187496Q65.58564697265625 57.428745117187496 65.30711669921875 57.428745117187496Q65.20204833984374 57.428745117187496 65.0835986328125 57.404956054687496Q64.96514892578125 57.381166992187495 64.83827392578125 57.334580078125V57.128408203125Q64.96019287109375 57.1968017578125 65.07715576171876 57.231494140625Q65.19411865234375 57.2661865234375 65.30711669921875 57.2661865234375Q65.47859619140624 57.2661865234375 65.57177001953124 57.19878417968749Q65.66494384765625 57.131381835937496 65.66494384765625 57.0064892578125Q65.66494384765625 56.897456054687495 65.598037109375 56.8360009765625Q65.53113037109375 56.7745458984375 65.37848388671874 56.743818359375L65.25656494140625 56.720029296875Q65.03255126953124 56.6754248046875 64.93243896484374 56.5802685546875Q64.83232666015624 56.4851123046875 64.83232666015624 56.315615234375Q64.83232666015624 56.11935546875 64.97060058593749 56.006357421874995Q65.10887451171875 55.893359374999996 65.35172119140624 55.893359374999996Q65.45579833984375 55.893359374999996 65.56384033203125 55.91219238281249Q65.67188232421874 55.931025390624995 65.78488037109375 55.96869140625ZM66.43632080078125 55.9201220703125H66.63654541015624V57.4H66.43632080078125ZM67.07983154296875 55.9201220703125H68.33173095703124V56.0886279296875H67.80638916015624V57.4H67.60517333984374V56.0886279296875H67.07983154296875ZM68.57181884765625 55.9201220703125H68.78691162109375L69.19727294921874 56.5287255859375L69.60466064453125 55.9201220703125H69.81975341796874L69.29639404296874 56.6952490234375V57.4H69.09517822265624V56.6952490234375Z" fill="#e7b866" />

  <path d="M34.04403076171875 58.220122070312506H34.34238525390625L34.720036621093755 59.227192382812504L35.09967041015625 58.220122070312506H35.39802490234375V59.7H35.202756347656255V58.4005224609375L34.82114013671875 59.4155224609375H34.619924316406255L34.238308105468754 58.4005224609375V59.7H34.04403076171875ZM36.64617431640625 58.355917968750006Q36.42810791015625 58.355917968750006 36.29974609375 58.518476562500005Q36.17138427734375 58.681035156250005 36.17138427734375 58.9615478515625Q36.17138427734375 59.2410693359375 36.29974609375 59.4036279296875Q36.42810791015625 59.5661865234375 36.64617431640625 59.5661865234375Q36.86424072265625 59.5661865234375 36.991611328125 59.4036279296875Q37.11898193359375 59.2410693359375 37.11898193359375 58.9615478515625Q37.11898193359375 58.681035156250005 36.991611328125 58.518476562500005Q36.86424072265625 58.355917968750006 36.64617431640625 58.355917968750006ZM36.64617431640625 58.193359375Q36.95741455078125 58.193359375 37.14376220703125 58.40200927734375Q37.33010986328125 58.6106591796875 37.33010986328125 58.9615478515625Q37.33010986328125 59.311445312500005 37.14376220703125 59.52009521484375Q36.95741455078125 59.7287451171875 36.64617431640625 59.7287451171875Q36.33394287109375 59.7287451171875 36.147099609375 59.520590820312506Q35.96025634765625 59.312436523437505 35.96025634765625 58.9615478515625Q35.96025634765625 58.6106591796875 36.147099609375 58.40200927734375Q36.33394287109375 58.193359375 36.64617431640625 58.193359375ZM38.59510986328125 59.00615234375Q38.65953857421875 59.027958984375005 38.720498046875 59.099326171875006Q38.78145751953125 59.170693359375 38.84291259765625 59.2955859375L39.04611083984375 59.7H38.83101806640625L38.641696777343746 59.3203662109375Q38.56834716796875 59.1716845703125 38.4994580078125 59.12311523437501Q38.43056884765625 59.074545898437506 38.31162353515625 59.074545898437506H38.09355712890625V59.7H37.89333251953125V58.220122070312506H38.34532470703125Q38.59907470703125 58.220122070312506 38.72396728515625 58.32618164062501Q38.84885986328125 58.432241210937505 38.84885986328125 58.6463427734375Q38.84885986328125 58.786103515625 38.783935546875 58.878286132812505Q38.71901123046875 58.97046875 38.59510986328125 59.00615234375ZM38.09355712890625 58.384663085937504V58.9100048828125H38.34532470703125Q38.49004150390625 58.9100048828125 38.56388671875 58.843098144531254Q38.63773193359375 58.77619140625 38.63773193359375 58.6463427734375Q38.63773193359375 58.516494140625 38.56388671875 58.45057861328125Q38.49004150390625 58.384663085937504 38.34532470703125 58.384663085937504ZM39.75405029296875 58.384663085937504V58.940732421875005H40.005817871093754Q40.14557861328125 58.940732421875005 40.22190185546875 58.868374023437504Q40.29822509765625 58.796015625 40.29822509765625 58.6622021484375Q40.29822509765625 58.529379882812506 40.22190185546875 58.457021484375005Q40.14557861328125 58.384663085937504 40.005817871093754 58.384663085937504ZM39.55382568359375 58.220122070312506H40.005817871093754Q40.25461181640625 58.220122070312506 40.381982421875 58.332624511718755Q40.50935302734375 58.445126953125005 40.50935302734375 58.6622021484375Q40.50935302734375 58.881259765625 40.381982421875 58.9932666015625Q40.25461181640625 59.1052734375 40.005817871093754 59.1052734375H39.75405029296875V59.7H39.55382568359375ZM41.02797119140625 58.220122070312506H41.22819580078125V58.826743164062506H41.95574462890625V58.220122070312506H42.15596923828125V59.7H41.95574462890625V58.9952490234375H41.22819580078125V59.7H41.02797119140625Z" fill="#e2ad55" />
  <path d="M21.996240234374998 70.806494140625H22.144189453124998V71.77548828125H22.676660156249998V71.9H21.996240234374998ZM22.981933593749996 70.806494140625H23.129882812499996V71.9H22.981933593749996ZM23.856298828124995 71.9 23.438818359374995 70.806494140625H23.593359374999995L23.939794921874995 71.7271484375L24.286962890624995 70.806494140625H24.440771484374995L24.024023437499995 71.9ZM24.750439453124994 70.806494140625H25.441845703124994V70.931005859375H24.898388671874994V71.254736328125H25.419140624999994V71.379248046875H24.898388671874994V71.77548828125H25.455029296874994V71.9H24.750439453124994Z" fill="#dfb56d" />
  <path d="M49.7625 70.928076171875V71.77841796875H49.9412109375Q50.167529296875 71.77841796875 50.2726318359375 71.67587890625Q50.377734375 71.57333984375 50.377734375 71.3521484375Q50.377734375 71.132421875 50.2726318359375 71.0302490234375Q50.167529296875 70.928076171875 49.9412109375 70.928076171875ZM49.61455078125 70.806494140625H49.918505859375Q50.236376953125 70.806494140625 50.38505859375 70.9386962890625Q50.533740234375 71.0708984375 50.533740234375 71.3521484375Q50.533740234375 71.63486328125 50.384326171875 71.767431640625Q50.234912109375 71.9 49.918505859375 71.9H49.61455078125ZM51.438134765625 71.3873046875Q51.4857421875 71.40341796875 51.5307861328125 71.45615234375Q51.575830078125 71.50888671875 51.621240234375 71.601171875L51.77138671875 71.9H51.612451171875L51.47255859375 71.619482421875Q51.418359375 71.509619140625 51.3674560546875 71.47373046875Q51.316552734375 71.437841796875 51.228662109375 71.437841796875H51.067529296875V71.9H50.919580078125V70.806494140625H51.253564453125Q51.441064453125 70.806494140625 51.533349609375 70.88486328125Q51.625634765625 70.963232421875 51.625634765625 71.121435546875Q51.625634765625 71.22470703125 51.5776611328125 71.292822265625Q51.5296875 71.3609375 51.438134765625 71.3873046875ZM51.067529296875 70.928076171875V71.316259765625H51.253564453125Q51.360498046875 71.316259765625 51.4150634765625 71.2668212890625Q51.46962890625 71.2173828125 51.46962890625 71.121435546875Q51.46962890625 71.02548828125 51.4150634765625 70.9767822265625Q51.360498046875 70.928076171875 51.253564453125 70.928076171875ZM52.11181640625 70.806494140625H52.80322265625V70.931005859375H52.259765625V71.254736328125H52.780517578125V71.379248046875H52.259765625V71.77548828125H52.81640625V71.9H52.11181640625ZM53.575048828125 70.95224609375 53.374365234375 71.496435546875H53.77646484375ZM53.491552734375 70.806494140625H53.65927734375L54.076025390625 71.9H53.922216796875L53.822607421875 71.619482421875H53.3296875L53.230078125 71.9H53.074072265625ZM54.385693359375 70.806494140625H54.60615234375L54.885205078125 71.550634765625L55.16572265625 70.806494140625H55.386181640625V71.9H55.24189453125V70.939794921875L54.959912109375 71.689794921875H54.81123046875L54.529248046875 70.939794921875V71.9H54.385693359375Z" fill="#dfb56d" />

  <path d="M24.8602783203125 93.006494140625H25.0082275390625V93.97548828125H25.5406982421875V94.1H24.8602783203125ZM25.845971679687498 93.006494140625H26.537377929687498V93.131005859375H25.993920898437498V93.454736328125H26.514672851562498V93.579248046875H25.993920898437498V93.97548828125H26.550561523437498V94.1H25.845971679687498ZM27.309204101562496 93.15224609375 27.108520507812496 93.696435546875H27.510620117187496ZM27.225708007812496 93.006494140625H27.393432617187496L27.810180664062496 94.1H27.656372070312496L27.556762695312496 93.819482421875H27.063842773437496L26.964233398437496 94.1H26.808227539062496ZM28.638403320312495 93.5873046875Q28.686010742187495 93.60341796875 28.731054687499995 93.65615234375Q28.776098632812495 93.70888671875 28.821508789062495 93.801171875L28.971655273437495 94.1H28.812719726562495L28.672827148437495 93.819482421875Q28.618627929687495 93.709619140625 28.567724609374995 93.67373046875Q28.516821289062495 93.637841796875 28.428930664062495 93.637841796875H28.267797851562495V94.1H28.119848632812495V93.006494140625H28.453833007812495Q28.641333007812495 93.006494140625 28.733618164062495 93.08486328125Q28.825903320312495 93.163232421875 28.825903320312495 93.321435546875Q28.825903320312495 93.42470703125 28.777929687499995 93.492822265625Q28.729956054687495 93.5609375 28.638403320312495 93.5873046875ZM28.267797851562495 93.128076171875V93.516259765625H28.453833007812495Q28.560766601562495 93.516259765625 28.615332031249995 93.4668212890625Q28.669897460937495 93.4173828125 28.669897460937495 93.321435546875Q28.669897460937495 93.22548828125 28.615332031249995 93.1767822265625Q28.560766601562495 93.128076171875 28.453833007812495 93.128076171875ZM29.312084960937494 93.006494140625H29.511303710937494L29.996166992187494 93.9212890625V93.006494140625H30.139721679687494V94.1H29.940502929687494L29.455639648437494 93.185205078125V94.1H29.312084960937494Z" fill="#e2ad55" />
  <path d="M46.47255859375 93.006494140625H46.6205078125V93.454736328125H47.15810546875V93.006494140625H47.3060546875V94.1H47.15810546875V93.579248046875H46.6205078125V94.1H46.47255859375ZM48.1943359375 93.1068359375Q48.033203125 93.1068359375 47.9383544921875 93.226953125Q47.843505859375 93.3470703125 47.843505859375 93.554345703125Q47.843505859375 93.760888671875 47.9383544921875 93.881005859375Q48.033203125 94.001123046875 48.1943359375 94.001123046875Q48.35546875 94.001123046875 48.4495849609375 93.881005859375Q48.543701171875 93.760888671875 48.543701171875 93.554345703125Q48.543701171875 93.3470703125 48.4495849609375 93.226953125Q48.35546875 93.1068359375 48.1943359375 93.1068359375ZM48.1943359375 92.98671875Q48.42431640625 92.98671875 48.56201171875 93.1408935546875Q48.69970703125 93.295068359375 48.69970703125 93.554345703125Q48.69970703125 93.812890625 48.56201171875 93.9670654296875Q48.42431640625 94.121240234375 48.1943359375 94.121240234375Q47.963623046875 94.121240234375 47.8255615234375 93.967431640625Q47.6875 93.813623046875 47.6875 93.554345703125Q47.6875 93.295068359375 47.8255615234375 93.1408935546875Q47.963623046875 92.98671875 48.1943359375 92.98671875ZM49.08115234375 93.006494140625H49.2291015625V93.97548828125H49.761572265625V94.1H49.08115234375ZM50.214794921875 93.128076171875V93.97841796875H50.393505859375Q50.61982421875 93.97841796875 50.7249267578125 93.87587890625Q50.830029296875 93.77333984375 50.830029296875 93.5521484375Q50.830029296875 93.332421875 50.7249267578125 93.2302490234375Q50.61982421875 93.128076171875 50.393505859375 93.128076171875ZM50.066845703125 93.006494140625H50.37080078125Q50.688671875 93.006494140625 50.837353515625 93.1386962890625Q50.98603515625 93.2708984375 50.98603515625 93.5521484375Q50.98603515625 93.83486328125 50.83662109375 93.967431640625Q50.68720703125 94.1 50.37080078125 94.1H50.066845703125Z" fill="#e2ad55" />

  <path d="M4.5 96.1 H71.7" stroke="#4b4a47" stroke-width="0.25"/>
  <path d="M7.5996337890625 97.05224609375 7.3989501953125 97.596435546875H7.8010498046875ZM7.5161376953125 96.906494140625H7.6838623046875L8.1006103515625 98.0H7.9468017578125L7.8471923828125 97.719482421875H7.3542724609375L7.2546630859375 98.0H7.0986572265625Z" fill="#dfb56d" />
  <path d="M19.5806396484375 97.477783203125V97.87841796875H19.8179443359375Q19.9373291015625 97.87841796875 19.99482421875 97.8289794921875Q20.0523193359375 97.779541015625 20.0523193359375 97.677734375Q20.0523193359375 97.5751953125 19.99482421875 97.5264892578125Q19.9373291015625 97.477783203125 19.8179443359375 97.477783203125ZM19.5806396484375 97.028076171875V97.357666015625H19.7996337890625Q19.9080322265625 97.357666015625 19.9611328125 97.3170166015625Q20.0142333984375 97.2763671875 20.0142333984375 97.19287109375Q20.0142333984375 97.110107421875 19.9611328125 97.069091796875Q19.9080322265625 97.028076171875 19.7996337890625 97.028076171875ZM19.4326904296875 96.906494140625H19.8106201171875Q19.9798095703125 96.906494140625 20.0713623046875 96.976806640625Q20.1629150390625 97.047119140625 20.1629150390625 97.1767578125Q20.1629150390625 97.277099609375 20.1160400390625 97.33642578125Q20.0691650390625 97.395751953125 19.9783447265625 97.410400390625Q20.0874755859375 97.433837890625 20.147900390625 97.5081787109375Q20.2083251953125 97.58251953125 20.2083251953125 97.69384765625Q20.2083251953125 97.84033203125 20.1087158203125 97.920166015625Q20.0091064453125 98.0 19.8252685546875 98.0H19.4326904296875Z" fill="#dfb56d" />
  <path d="M32.4423828125 96.99072265625V97.146728515625Q32.36767578125 97.0771484375 32.2830810546875 97.042724609375Q32.198486328125 97.00830078125 32.103271484375 97.00830078125Q31.915771484375 97.00830078125 31.816162109375 97.1229248046875Q31.716552734375 97.237548828125 31.716552734375 97.454345703125Q31.716552734375 97.67041015625 31.816162109375 97.7850341796875Q31.915771484375 97.899658203125 32.103271484375 97.899658203125Q32.198486328125 97.899658203125 32.2830810546875 97.865234375Q32.36767578125 97.830810546875 32.4423828125 97.76123046875V97.915771484375Q32.36474609375 97.968505859375 32.2779541015625 97.994873046875Q32.191162109375 98.021240234375 32.094482421875 98.021240234375Q31.84619140625 98.021240234375 31.703369140625 97.8692626953125Q31.560546875 97.71728515625 31.560546875 97.454345703125Q31.560546875 97.190673828125 31.703369140625 97.0386962890625Q31.84619140625 96.88671875 32.094482421875 96.88671875Q32.192626953125 96.88671875 32.2794189453125 96.9127197265625Q32.3662109375 96.938720703125 32.4423828125 96.99072265625Z" fill="#dfb56d" />
  <path d="M43.9176513671875 97.028076171875V97.87841796875H44.0963623046875Q44.3226806640625 97.87841796875 44.427783203125 97.77587890625Q44.5328857421875 97.67333984375 44.5328857421875 97.4521484375Q44.5328857421875 97.232421875 44.427783203125 97.1302490234375Q44.3226806640625 97.028076171875 44.0963623046875 97.028076171875ZM43.7697021484375 96.906494140625H44.0736572265625Q44.3915283203125 96.906494140625 44.5402099609375 97.0386962890625Q44.6888916015625 97.1708984375 44.6888916015625 97.4521484375Q44.6888916015625 97.73486328125 44.5394775390625 97.867431640625Q44.3900634765625 98.0 44.0736572265625 98.0H43.7697021484375Z" fill="#dfb56d" />
  <path d="M54.518701171875 96.99072265625V97.146728515625Q54.443994140625 97.0771484375 54.3593994140625 97.042724609375Q54.2748046875 97.00830078125 54.17958984375 97.00830078125Q53.99208984375 97.00830078125 53.89248046875 97.1229248046875Q53.79287109375 97.237548828125 53.79287109375 97.454345703125Q53.79287109375 97.67041015625 53.89248046875 97.7850341796875Q53.99208984375 97.899658203125 54.17958984375 97.899658203125Q54.2748046875 97.899658203125 54.3593994140625 97.865234375Q54.443994140625 97.830810546875 54.518701171875 97.76123046875V97.915771484375Q54.441064453125 97.968505859375 54.3542724609375 97.994873046875Q54.26748046875 98.021240234375 54.17080078125 98.021240234375Q53.922509765625 98.021240234375 53.7796875 97.8692626953125Q53.636865234375 97.71728515625 53.636865234375 97.454345703125Q53.636865234375 97.190673828125 53.7796875 97.0386962890625Q53.922509765625 96.88671875 54.17080078125 96.88671875Q54.2689453125 96.88671875 54.3557373046875 96.9127197265625Q54.442529296875 96.938720703125 54.518701171875 96.99072265625ZM54.897216796875 96.906494140625H55.045166015625V97.87548828125H55.57763671875V98.0H54.897216796875ZM56.3267578125 97.0068359375Q56.165625 97.0068359375 56.0707763671875 97.126953125Q55.975927734375 97.2470703125 55.975927734375 97.454345703125Q55.975927734375 97.660888671875 56.0707763671875 97.781005859375Q56.165625 97.901123046875 56.3267578125 97.901123046875Q56.487890625 97.901123046875 56.5820068359375 97.781005859375Q56.676123046875 97.660888671875 56.676123046875 97.454345703125Q56.676123046875 97.2470703125 56.5820068359375 97.126953125Q56.487890625 97.0068359375 56.3267578125 97.0068359375ZM56.3267578125 96.88671875Q56.55673828125 96.88671875 56.69443359375 97.0408935546875Q56.83212890625 97.195068359375 56.83212890625 97.454345703125Q56.83212890625 97.712890625 56.69443359375 97.8670654296875Q56.55673828125 98.021240234375 56.3267578125 98.021240234375Q56.096044921875 98.021240234375 55.9579833984375 97.867431640625Q55.819921875 97.713623046875 55.819921875 97.454345703125Q55.819921875 97.195068359375 55.9579833984375 97.0408935546875Q56.096044921875 96.88671875 56.3267578125 96.88671875ZM58.032421875 96.99072265625V97.146728515625Q57.95771484375 97.0771484375 57.8731201171875 97.042724609375Q57.788525390625 97.00830078125 57.693310546875 97.00830078125Q57.505810546875 97.00830078125 57.406201171875 97.1229248046875Q57.306591796875 97.237548828125 57.306591796875 97.454345703125Q57.306591796875 97.67041015625 57.406201171875 97.7850341796875Q57.505810546875 97.899658203125 57.693310546875 97.899658203125Q57.788525390625 97.899658203125 57.8731201171875 97.865234375Q57.95771484375 97.830810546875 58.032421875 97.76123046875V97.915771484375Q57.95478515625 97.968505859375 57.8679931640625 97.994873046875Q57.781201171875 98.021240234375 57.684521484375 98.021240234375Q57.43623046875 98.021240234375 57.293408203125 97.8692626953125Q57.1505859375 97.71728515625 57.1505859375 97.454345703125Q57.1505859375 97.190673828125 57.293408203125 97.0386962890625Q57.43623046875 96.88671875 57.684521484375 96.88671875Q57.782666015625 96.88671875 57.8694580078125 96.9127197265625Q57.95625 96.938720703125 58.032421875 96.99072265625ZM58.410937499999996 96.906494140625H58.558886718749996V97.36865234375L59.049609374999996 96.906494140625H59.240039062499996L58.697314453124996 97.416259765625L59.278857421874996 98.0H59.084033203124996L58.558886718749996 97.473388671875V98.0H58.410937499999996Z" fill="#dfb56d" />
  <path d="M66.5626953125 97.4873046875Q66.610302734375 97.50341796875 66.6553466796875 97.55615234375Q66.700390625 97.60888671875 66.74580078125 97.701171875L66.895947265625 98.0H66.73701171875L66.597119140625 97.719482421875Q66.542919921875 97.609619140625 66.4920166015625 97.57373046875Q66.44111328125 97.537841796875 66.35322265625 97.537841796875H66.19208984375V98.0H66.044140625V96.906494140625H66.378125Q66.565625 96.906494140625 66.65791015625 96.98486328125Q66.7501953125 97.063232421875 66.7501953125 97.221435546875Q66.7501953125 97.32470703125 66.7022216796875 97.392822265625Q66.654248046875 97.4609375 66.5626953125 97.4873046875ZM66.19208984375 97.028076171875V97.416259765625H66.378125Q66.48505859375 97.416259765625 66.5396240234375 97.3668212890625Q66.594189453125 97.3173828125 66.594189453125 97.221435546875Q66.594189453125 97.12548828125 66.5396240234375 97.0767822265625Q66.48505859375 97.028076171875 66.378125 97.028076171875ZM67.236376953125 96.906494140625H67.927783203125V97.031005859375H67.384326171875V97.354736328125H67.905078125V97.479248046875H67.384326171875V97.87548828125H67.940966796875V98.0H67.236376953125ZM68.98964843750001 96.9423828125V97.086669921875Q68.90541992187501 97.04638671875 68.83071289062501 97.026611328125Q68.75600585937501 97.0068359375 68.68642578125001 97.0068359375Q68.56557617187501 97.0068359375 68.50002441406251 97.0537109375Q68.43447265625001 97.1005859375 68.43447265625001 97.18701171875Q68.43447265625001 97.259521484375 68.47805175781251 97.2965087890625Q68.52163085937501 97.33349609375 68.64321289062501 97.356201171875L68.73256835937501 97.37451171875Q68.89809570312501 97.406005859375 68.97683105468751 97.4854736328125Q69.05556640625001 97.56494140625 69.05556640625001 97.6982421875Q69.05556640625001 97.857177734375 68.94899902343751 97.939208984375Q68.84243164062501 98.021240234375 68.63662109375001 98.021240234375Q68.55898437500001 98.021240234375 68.47145996093751 98.003662109375Q68.38393554687501 97.986083984375 68.29018554687501 97.95166015625V97.79931640625Q68.38027343750001 97.849853515625 68.46669921875001 97.87548828125Q68.55312500000001 97.901123046875 68.63662109375001 97.901123046875Q68.76333007812501 97.901123046875 68.83217773437501 97.851318359375Q68.90102539062501 97.801513671875 68.90102539062501 97.709228515625Q68.90102539062501 97.628662109375 68.85158691406251 97.583251953125Q68.80214843750001 97.537841796875 68.68935546875001 97.51513671875L68.59926757812501 97.49755859375Q68.43374023437501 97.464599609375 68.35976562500001 97.394287109375Q68.28579101562501 97.323974609375 68.28579101562501 97.19873046875Q68.28579101562501 97.0537109375 68.38796386718751 96.97021484375Q68.49013671875001 96.88671875 68.66958007812501 96.88671875Q68.74648437500001 96.88671875 68.82631835937501 96.900634765625Q68.90615234375001 96.91455078125 68.98964843750001 96.9423828125ZM69.43627929687501 96.906494140625H70.12768554687501V97.031005859375H69.58422851562501V97.354736328125H70.10498046875001V97.479248046875H69.58422851562501V97.87548828125H70.14086914062501V98.0H69.43627929687501ZM70.38242187500002 96.906494140625H71.30747070312502V97.031005859375H70.91928710937502V98.0H70.77060546875002V97.031005859375H70.38242187500002Z" fill="#dfb56d" />

  <path d="M4.5 109.1 H71.7" stroke="#e2ad55" stroke-width="0.3" opacity="0.72"/>
  <circle cx="38.1" cy="109.1" r="0.55" fill="#e2ad55"/>
  <path d="M10.4996337890625 112.05224609375 10.2989501953125 112.596435546875H10.7010498046875ZM10.4161376953125 111.906494140625H10.5838623046875L11.0006103515625 113.0H10.8468017578125L10.7471923828125 112.719482421875H10.2542724609375L10.1546630859375 113.0H9.9986572265625Z" fill="#dfb56d" />
  <path d="M24.0806396484375 112.477783203125V112.87841796875H24.3179443359375Q24.4373291015625 112.87841796875 24.49482421875 112.8289794921875Q24.5523193359375 112.779541015625 24.5523193359375 112.677734375Q24.5523193359375 112.5751953125 24.49482421875 112.5264892578125Q24.4373291015625 112.477783203125 24.3179443359375 112.477783203125ZM24.0806396484375 112.028076171875V112.357666015625H24.2996337890625Q24.4080322265625 112.357666015625 24.4611328125 112.3170166015625Q24.5142333984375 112.2763671875 24.5142333984375 112.19287109375Q24.5142333984375 112.110107421875 24.4611328125 112.069091796875Q24.4080322265625 112.028076171875 24.2996337890625 112.028076171875ZM23.9326904296875 111.906494140625H24.3106201171875Q24.4798095703125 111.906494140625 24.5713623046875 111.976806640625Q24.6629150390625 112.047119140625 24.6629150390625 112.1767578125Q24.6629150390625 112.277099609375 24.6160400390625 112.33642578125Q24.5691650390625 112.395751953125 24.4783447265625 112.410400390625Q24.5874755859375 112.433837890625 24.647900390625 112.5081787109375Q24.7083251953125 112.58251953125 24.7083251953125 112.69384765625Q24.7083251953125 112.84033203125 24.6087158203125 112.920166015625Q24.5091064453125 113.0 24.3252685546875 113.0H23.9326904296875Z" fill="#dfb56d" />
  <path d="M38.5423828125 111.99072265625V112.146728515625Q38.46767578125 112.0771484375 38.3830810546875 112.042724609375Q38.298486328125 112.00830078125 38.203271484375 112.00830078125Q38.015771484375 112.00830078125 37.916162109375 112.1229248046875Q37.816552734375 112.237548828125 37.816552734375 112.454345703125Q37.816552734375 112.67041015625 37.916162109375 112.7850341796875Q38.015771484375 112.899658203125 38.203271484375 112.899658203125Q38.298486328125 112.899658203125 38.3830810546875 112.865234375Q38.46767578125 112.830810546875 38.5423828125 112.76123046875V112.915771484375Q38.46474609375 112.968505859375 38.3779541015625 112.994873046875Q38.291162109375 113.021240234375 38.194482421875 113.021240234375Q37.94619140625 113.021240234375 37.803369140625 112.8692626953125Q37.660546875 112.71728515625 37.660546875 112.454345703125Q37.660546875 112.190673828125 37.803369140625 112.0386962890625Q37.94619140625 111.88671875 38.194482421875 111.88671875Q38.292626953125 111.88671875 38.3794189453125 111.9127197265625Q38.4662109375 111.938720703125 38.5423828125 111.99072265625Z" fill="#dfb56d" />
  <path d="M51.6176513671875 112.028076171875V112.87841796875H51.7963623046875Q52.0226806640625 112.87841796875 52.127783203125 112.77587890625Q52.2328857421875 112.67333984375 52.2328857421875 112.4521484375Q52.2328857421875 112.232421875 52.127783203125 112.1302490234375Q52.0226806640625 112.028076171875 51.7963623046875 112.028076171875ZM51.4697021484375 111.906494140625H51.7736572265625Q52.0915283203125 111.906494140625 52.2402099609375 112.0386962890625Q52.3888916015625 112.1708984375 52.3888916015625 112.4521484375Q52.3888916015625 112.73486328125 52.2394775390625 112.867431640625Q52.0900634765625 113.0 51.7736572265625 113.0H51.4697021484375Z" fill="#dfb56d" />
  <path d="M62.212939453125 111.906494140625H63.13798828125V112.031005859375H62.7498046875V113.0H62.601123046875V112.031005859375H62.212939453125ZM63.430810546875 111.906494140625H63.578759765625V112.354736328125H64.116357421875V111.906494140625H64.264306640625V113.0H64.116357421875V112.479248046875H63.578759765625V113.0H63.430810546875ZM65.227294921875 112.4873046875Q65.27490234375 112.50341796875 65.3199462890625 112.55615234375Q65.364990234375 112.60888671875 65.410400390625 112.701171875L65.560546875 113.0H65.401611328125L65.26171875 112.719482421875Q65.20751953125 112.609619140625 65.1566162109375 112.57373046875Q65.105712890625 112.537841796875 65.017822265625 112.537841796875H64.856689453125V113.0H64.708740234375V111.906494140625H65.042724609375Q65.230224609375 111.906494140625 65.322509765625 111.98486328125Q65.414794921875 112.063232421875 65.414794921875 112.221435546875Q65.414794921875 112.32470703125 65.3668212890625 112.392822265625Q65.31884765625 112.4609375 65.227294921875 112.4873046875ZM64.856689453125 112.028076171875V112.416259765625H65.042724609375Q65.149658203125 112.416259765625 65.2042236328125 112.3668212890625Q65.2587890625 112.3173828125 65.2587890625 112.221435546875Q65.2587890625 112.12548828125 65.2042236328125 112.0767822265625Q65.149658203125 112.028076171875 65.042724609375 112.028076171875ZM65.9009765625 111.906494140625H66.5923828125V112.031005859375H66.04892578125V112.354736328125H66.569677734375V112.479248046875H66.04892578125V112.87548828125H66.60556640625V113.0H65.9009765625ZM67.36420898437501 112.05224609375 67.16352539062501 112.596435546875H67.56562500000001ZM67.28071289062501 111.906494140625H67.44843750000001L67.86518554687501 113.0H67.71137695312501L67.61176757812501 112.719482421875H67.11884765625001L67.01923828125001 113.0H66.86323242187501ZM68.32280273437502 112.028076171875V112.87841796875H68.50151367187502Q68.72783203125002 112.87841796875 68.83293457031252 112.77587890625Q68.93803710937502 112.67333984375 68.93803710937502 112.4521484375Q68.93803710937502 112.232421875 68.83293457031252 112.1302490234375Q68.72783203125002 112.028076171875 68.50151367187502 112.028076171875ZM68.17485351562502 111.906494140625H68.47880859375002Q68.79667968750002 111.906494140625 68.94536132812502 112.0386962890625Q69.09404296875002 112.1708984375 69.09404296875002 112.4521484375Q69.09404296875002 112.73486328125 68.94462890625002 112.867431640625Q68.79521484375002 113.0 68.47880859375002 113.0H68.17485351562502Z" fill="#dfb56d" />

  <!-- colour coding is printed under the corresponding output sockets -->
  <g fill="none" stroke-width="0.65" opacity="0.92">
    <circle cx="10.5" cy="118" r="5.05" stroke="#25d6f2"/>
    <circle cx="24.3" cy="118" r="5.05" stroke="#ffb525"/>
    <circle cx="38.1" cy="118" r="5.05" stroke="#f042a4"/>
    <circle cx="51.9" cy="118" r="5.05" stroke="#83e342"/>
    <circle cx="65.7" cy="118" r="5.05" stroke="#a5abb3"/>
  </g>

  <path d="M31.232661132812503 126.8284765625V127.35H31.090708007812502V126.83310546874999Q31.090708007812502 126.71043945312499 31.042875976562502 126.64949218749999Q30.995043945312503 126.588544921875 30.899379882812504 126.588544921875Q30.784428710937505 126.588544921875 30.718081054687502 126.6618359375Q30.651733398437504 126.73512695312499 30.651733398437504 126.86165039062499V127.35H30.509008789062502V126.14957031249999H30.651733398437504V126.62017578125Q30.702651367187503 126.54225585937499 30.77169921875 126.50368164062499Q30.840747070312503 126.46510742187499 30.931010742187503 126.46510742187499Q31.079907226562504 126.46510742187499 31.156284179687503 126.55729980468749Q31.232661132812503 126.64949218749999 31.232661132812503 126.8284765625ZM32.788481445312506 126.91565429687499Q32.61644042968751 126.91565429687499 32.550092773437505 126.95499999999998Q32.4837451171875 126.99434570312499 32.4837451171875 127.08923828124999Q32.4837451171875 127.16484374999999 32.533505859375005 127.20920410156249Q32.58326660156251 127.253564453125 32.6689013671875 127.253564453125Q32.786938476562504 127.253564453125 32.85830078125001 127.1698583984375Q32.929663085937506 127.08615234375 32.929663085937506 126.94728515624999V126.91565429687499ZM33.071616210937506 126.857021484375V127.35H32.929663085937506V127.21884765624999Q32.8810595703125 127.2975390625 32.80854003906251 127.3349560546875Q32.736020507812505 127.372373046875 32.6310986328125 127.372373046875Q32.498403320312505 127.372373046875 32.42009765625001 127.2979248046875Q32.3417919921875 127.2234765625 32.3417919921875 127.09849609375Q32.3417919921875 126.95268554687499 32.43938476562501 126.87862304687499Q32.536977539062505 126.804560546875 32.730620117187506 126.804560546875H32.929663085937506V126.790673828125Q32.929663085937506 126.69269531249999 32.86524414062501 126.6390771484375Q32.800825195312505 126.585458984375 32.684331054687505 126.585458984375Q32.6102685546875 126.585458984375 32.5400634765625 126.603203125Q32.4698583984375 126.62094726562499 32.4050537109375 126.65643554687499V126.525283203125Q32.4829736328125 126.49519531249999 32.556264648437505 126.48015136718749Q32.6295556640625 126.46510742187499 32.69898925781251 126.46510742187499Q32.88645996093751 126.46510742187499 32.9790380859375 126.562314453125Q33.071616210937506 126.65952148437499 33.071616210937506 126.857021484375ZM34.244008789062505 126.14957031249999H34.385961914062506V127.35H34.244008789062505ZM36.0004150390625 126.14957031249999V126.267607421875H35.8646337890625Q35.7882568359375 126.267607421875 35.7585546875 126.298466796875Q35.7288525390625 126.329326171875 35.7288525390625 126.409560546875V126.48593749999999H35.962612304687504V126.59625976562499H35.7288525390625V127.35H35.5861279296875V126.59625976562499H35.4503466796875V126.48593749999999H35.5861279296875V126.42576171875Q35.5861279296875 126.281494140625 35.6532470703125 126.21553222656249Q35.7203662109375 126.14957031249999 35.866176757812504 126.14957031249999ZM37.3919091796875 126.91565429687499Q37.219868164062504 126.91565429687499 37.1535205078125 126.95499999999998Q37.0871728515625 126.99434570312499 37.0871728515625 127.08923828124999Q37.0871728515625 127.16484374999999 37.13693359375 127.20920410156249Q37.1866943359375 127.253564453125 37.2723291015625 127.253564453125Q37.3903662109375 127.253564453125 37.461728515625 127.1698583984375Q37.5330908203125 127.08615234375 37.5330908203125 126.94728515624999V126.91565429687499ZM37.6750439453125 126.857021484375V127.35H37.5330908203125V127.21884765624999Q37.4844873046875 127.2975390625 37.411967773437496 127.3349560546875Q37.3394482421875 127.372373046875 37.2345263671875 127.372373046875Q37.1018310546875 127.372373046875 37.023525390625 127.2979248046875Q36.9452197265625 127.2234765625 36.9452197265625 127.09849609375Q36.9452197265625 126.95268554687499 37.0428125 126.87862304687499Q37.1404052734375 126.804560546875 37.3340478515625 126.804560546875H37.5330908203125V126.790673828125Q37.5330908203125 126.69269531249999 37.468671875 126.6390771484375Q37.4042529296875 126.585458984375 37.2877587890625 126.585458984375Q37.2136962890625 126.585458984375 37.1434912109375 126.603203125Q37.0732861328125 126.62094726562499 37.0084814453125 126.65643554687499V126.525283203125Q37.0864013671875 126.49519531249999 37.159692382812494 126.48015136718749Q37.2329833984375 126.46510742187499 37.3024169921875 126.46510742187499Q37.489887695312504 126.46510742187499 37.58246582031251 126.562314453125Q37.6750439453125 126.65952148437499 37.6750439453125 126.857021484375ZM39.4160205078125 126.907939453125Q39.4160205078125 126.753642578125 39.352373046875 126.66877929687499Q39.2887255859375 126.583916015625 39.1737744140625 126.583916015625Q39.0595947265625 126.583916015625 38.995947265625006 126.66877929687499Q38.9322998046875 126.753642578125 38.9322998046875 126.907939453125Q38.9322998046875 127.06146484374999 38.995947265625006 127.146328125Q39.0595947265625 127.23119140624999 39.1737744140625 127.23119140624999Q39.2887255859375 127.23119140624999 39.352373046875 127.146328125Q39.4160205078125 127.06146484374999 39.4160205078125 126.907939453125ZM39.5579736328125 127.242763671875Q39.5579736328125 127.463408203125 39.4599951171875 127.57103027343749Q39.3620166015625 127.67865234374999 39.1598876953125 127.67865234374999Q39.0850537109375 127.67865234374999 39.0187060546875 127.66746582031249Q38.952358398437504 127.656279296875 38.8898681640625 127.63313476562499V127.4950390625Q38.952358398437504 127.528984375 39.0133056640625 127.54518554687499Q39.0742529296875 127.56138671875 39.1375146484375 127.56138671875Q39.2771533203125 127.56138671875 39.3465869140625 127.48848144531249Q39.4160205078125 127.41557617187499 39.4160205078125 127.26822265624999V127.19801757812499Q39.3720458984375 127.27439453125 39.3033837890625 127.312197265625Q39.2347216796875 127.35 39.1390576171875 127.35Q38.9801318359375 127.35 38.8829248046875 127.228876953125Q38.7857177734375 127.10775390625 38.7857177734375 126.907939453125Q38.7857177734375 126.70735351562499 38.8829248046875 126.58623046874999Q38.9801318359375 126.46510742187499 39.1390576171875 126.46510742187499Q39.2347216796875 126.46510742187499 39.3033837890625 126.50291015624998Q39.3720458984375 126.54071289062499 39.4160205078125 126.61708984375V126.48593749999999H39.5579736328125ZM40.730366210937504 126.48593749999999H40.872319335937505V127.35H40.730366210937504ZM40.730366210937504 126.14957031249999H40.872319335937505V126.329326171875H40.730366210937504ZM42.5500341796875 126.6186328125Q42.5261181640625 126.60474609375 42.497958984375 126.59818847656248Q42.4697998046875 126.59163085937499 42.4358544921875 126.59163085937499Q42.3155029296875 126.59163085937499 42.251083984375 126.66993652343749Q42.1866650390625 126.7482421875 42.1866650390625 126.89482421874999V127.35H42.0439404296875V126.48593749999999H42.1866650390625V126.62017578125Q42.231411132812504 126.541484375 42.3031591796875 126.5032958984375Q42.3749072265625 126.46510742187499 42.4775146484375 126.46510742187499Q42.4921728515625 126.46510742187499 42.5099169921875 126.4670361328125Q42.5276611328125 126.46896484375 42.5492626953125 126.472822265625ZM43.971616210937505 126.91565429687499Q43.79957519531251 126.91565429687499 43.733227539062504 126.95499999999998Q43.6668798828125 126.99434570312499 43.6668798828125 127.08923828124999Q43.6668798828125 127.16484374999999 43.716640625000004 127.20920410156249Q43.766401367187505 127.253564453125 43.8520361328125 127.253564453125Q43.9700732421875 127.253564453125 44.04143554687501 127.1698583984375Q44.112797851562505 127.08615234375 44.112797851562505 126.94728515624999V126.91565429687499ZM44.254750976562505 126.857021484375V127.35H44.112797851562505V127.21884765624999Q44.0641943359375 127.2975390625 43.991674804687506 127.3349560546875Q43.919155273437504 127.372373046875 43.8142333984375 127.372373046875Q43.681538085937504 127.372373046875 43.603232421875006 127.2979248046875Q43.5249267578125 127.2234765625 43.5249267578125 127.09849609375Q43.5249267578125 126.95268554687499 43.622519531250006 126.87862304687499Q43.720112304687504 126.804560546875 43.913754882812505 126.804560546875H44.112797851562505V126.790673828125Q44.112797851562505 126.69269531249999 44.04837890625001 126.6390771484375Q43.983959960937504 126.585458984375 43.8674658203125 126.585458984375Q43.7934033203125 126.585458984375 43.7231982421875 126.603203125Q43.6529931640625 126.62094726562499 43.5881884765625 126.65643554687499V126.525283203125Q43.6661083984375 126.49519531249999 43.739399414062504 126.48015136718749Q43.8126904296875 126.46510742187499 43.882124023437505 126.46510742187499Q44.06959472656251 126.46510742187499 44.1621728515625 126.562314453125Q44.254750976562505 126.65952148437499 44.254750976562505 126.857021484375ZM45.864575195312504 126.14957031249999V126.267607421875H45.7287939453125Q45.652416992187504 126.267607421875 45.62271484375 126.298466796875Q45.5930126953125 126.329326171875 45.5930126953125 126.409560546875V126.48593749999999H45.826772460937505V126.59625976562499H45.5930126953125V127.35H45.4502880859375V126.59625976562499H45.3145068359375V126.48593749999999H45.4502880859375V126.42576171875Q45.4502880859375 126.281494140625 45.5174072265625 126.21553222656249Q45.5845263671875 126.14957031249999 45.730336914062505 126.14957031249999Z" fill="#d9a858" />
</svg>
